<svg width="22" height="26" viewBox="0 0 22 26" fill="none" xmlns="http://www.w3.org/2000/svg"><path d="M20 0H2C1.46957 0 0.960859 0.210714 0.585786 0.585786C0.210714 0.960859 0 1.46957 0 2V24C0 24.5304 0.210714 25.0391 0.585786 25.4142C0.960859 25.7893 1.46957 26 2 26H20C20.5304 26 21.0391 25.7893 21.4142 25.4142C21.7893 25.0391 22 24.5304 22 24V2C22 1.46957 21.7893 0.960859 21.4142 0.585786C21.0391 0.210714 20.5304 0 20 0ZM6 22C5.70333 22 5.41332 21.912 5.16665 21.7472C4.91997 21.5824 4.72771 21.3481 4.61418 21.074C4.50065 20.7999 4.47094 20.4983 4.52882 20.2074C4.5867 19.9164 4.72956 19.6491 4.93934 19.4393C5.14912 19.2296 5.41639 19.0867 5.70736 19.0288C5.99834 18.9709 6.29994 19.0007 6.57403 19.1142C6.84811 19.2277 7.08238 19.42 7.2472 19.6666C7.41203 19.9133 7.5 20.2033 7.5 20.5C7.5 20.8978 7.34196 21.2794 7.06066 21.5607C6.77936 21.842 6.39782 22 6 22ZM6 17C5.70333 17 5.41332 16.912 5.16665 16.7472C4.91997 16.5824 4.72771 16.3481 4.61418 16.074C4.50065 15.7999 4.47094 15.4983 4.52882 15.2074C4.5867 14.9164 4.72956 14.6491 4.93934 14.4393C5.14912 14.2296 5.41639 14.0867 5.70736 14.0288C5.99834 13.9709 6.29994 14.0007 6.57403 14.1142C6.84811 14.2277 7.08238 14.42 7.2472 14.6666C7.41203 14.9133 7.5 15.2033 7.5 15.5C7.5 15.8978 7.34196 16.2794 7.06066 16.5607C6.77936 16.842 6.39782 17 6 17ZM11 22C10.7033 22 10.4133 21.912 10.1666 21.7472C9.91997 21.5824 9.72771 21.3481 9.61418 21.074C9.50065 20.7999 9.47094 20.4983 9.52882 20.2074C9.5867 19.9164 9.72956 19.6491 9.93934 19.4393C10.1491 19.2296 10.4164 19.0867 10.7074 19.0288C10.9983 18.9709 11.2999 19.0007 11.574 19.1142C11.8481 19.2277 12.0824 19.42 12.2472 19.6666C12.412 19.9133 12.5 20.2033 12.5 20.5C12.5 20.8978 12.342 21.2794 12.0607 21.5607C11.7794 21.842 11.3978 22 11 22ZM11 17C10.7033 17 10.4133 16.912 10.1666 16.7472C9.91997 16.5824 9.72771 16.3481 9.61418 16.074C9.50065 15.7999 9.47094 15.4983 9.52882 15.2074C9.5867 14.9164 9.72956 14.6491 9.93934 14.4393C10.1491 14.2296 10.4164 14.0867 10.7074 14.0288C10.9983 13.9709 11.2999 14.0007 11.574 14.1142C11.8481 14.2277 12.0824 14.42 12.2472 14.6666C12.412 14.9133 12.5 15.2033 12.5 15.5C12.5 15.8978 12.342 16.2794 12.0607 16.5607C11.7794 16.842 11.3978 17 11 17ZM16 22C15.7033 22 15.4133 21.912 15.1666 21.7472C14.92 21.5824 14.7277 21.3481 14.6142 21.074C14.5007 20.7999 14.4709 20.4983 14.5288 20.2074C14.5867 19.9164 14.7296 19.6491 14.9393 19.4393C15.1491 19.2296 15.4164 19.0867 15.7074 19.0288C15.9983 18.9709 16.2999 19.0007 16.574 19.1142C16.8481 19.2277 17.0824 19.42 17.2472 19.6666C17.412 19.9133 17.5 20.2033 17.5 20.5C17.5 20.8978 17.342 21.2794 17.0607 21.5607C16.7794 21.842 16.3978 22 16 22ZM16 17C15.7033 17 15.4133 16.912 15.1666 16.7472C14.92 16.5824 14.7277 16.3481 14.6142 16.074C14.5007 15.7999 14.4709 15.4983 14.5288 15.2074C14.5867 14.9164 14.7296 14.6491 14.9393 14.4393C15.1491 14.2296 15.4164 14.0867 15.7074 14.0288C15.9983 13.9709 16.2999 14.0007 16.574 14.1142C16.8481 14.2277 17.0824 14.42 17.2472 14.6666C17.412 14.9133 17.5 15.2033 17.5 15.5C17.5 15.8978 17.342 16.2794 17.0607 16.5607C16.7794 16.842 16.3978 17 16 17ZM18 10C18 10.2652 17.8946 10.5196 17.7071 10.7071C17.5196 10.8946 17.2652 11 17 11H5C4.73478 11 4.48043 10.8946 4.29289 10.7071C4.10536 10.5196 4 10.2652 4 10V5C4 4.73478 4.10536 4.48043 4.29289 4.29289C4.48043 4.10536 4.73478 4 5 4H17C17.2652 4 17.5196 4.10536 17.7071 4.29289C17.8946 4.48043 18 4.73478 18 5V10Z" fill="currentColor"/></svg>