<svg width="30" height="24" viewBox="0 0 30 24" fill="none" xmlns="http://www.w3.org/2000/svg"><path d="M18.3147 0.190771C18.655 0.286491 18.9433 0.513448 19.1164 0.821738C19.2894 1.13003 19.3329 1.49441 19.2373 1.83477L13.3307 22.8854C13.2834 23.0541 13.2034 23.2117 13.0951 23.3494C12.9869 23.4871 12.8527 23.6021 12.7 23.6879C12.5474 23.7737 12.3793 23.8286 12.2054 23.8495C12.0315 23.8703 11.8553 23.8567 11.6867 23.8094C11.518 23.7622 11.3604 23.6821 11.2227 23.5739C11.085 23.4657 10.97 23.3315 10.8842 23.1788C10.7984 23.0261 10.7435 22.8581 10.7226 22.6842C10.7018 22.5103 10.7154 22.3341 10.7627 22.1654L16.6693 1.11477C16.7166 0.945995 16.7966 0.78819 16.9049 0.650382C17.0132 0.512574 17.1476 0.397469 17.3004 0.311649C17.4532 0.22583 17.6215 0.170981 17.7955 0.150239C17.9695 0.129498 18.1459 0.143271 18.3147 0.190771ZM8.60932 5.4001C8.85928 5.65014 8.9997 5.98922 8.9997 6.34277C8.9997 6.69632 8.85928 7.0354 8.60932 7.28544L3.89598 12.0001L8.60932 16.7134C8.7332 16.8372 8.83148 16.9842 8.89856 17.146C8.96564 17.3078 9.00019 17.4812 9.00026 17.6563C9.00032 17.8314 8.96588 18.0049 8.89892 18.1667C8.83196 18.3285 8.73378 18.4756 8.60998 18.5994C8.48619 18.7233 8.33921 18.8216 8.17743 18.8887C8.01566 18.9558 7.84225 18.9903 7.66712 18.9904C7.49199 18.9904 7.31856 18.956 7.15674 18.889C6.99492 18.8221 6.84787 18.7239 6.72399 18.6001L1.06665 12.9428C0.81669 12.6927 0.67627 12.3537 0.67627 12.0001C0.67627 11.6466 0.81669 11.3075 1.06665 11.0574L6.72399 5.4001C6.97402 5.15014 7.3131 5.00972 7.66665 5.00972C8.0202 5.00972 8.35928 5.15014 8.60932 5.4001ZM21.3907 7.28544C21.2633 7.16244 21.1617 7.01532 21.0919 6.85264C21.022 6.68997 20.9852 6.51501 20.9837 6.33797C20.9821 6.16093 21.0158 5.98536 21.0829 5.8215C21.1499 5.65764 21.2489 5.50877 21.3741 5.38358C21.4993 5.25839 21.6482 5.15938 21.812 5.09234C21.9759 5.0253 22.1515 4.99156 22.3285 4.9931C22.5056 4.99464 22.6805 5.03142 22.8432 5.1013C23.0059 5.17118 23.153 5.27276 23.276 5.4001L28.9333 11.0574C29.1833 11.3075 29.3237 11.6466 29.3237 12.0001C29.3237 12.3537 29.1833 12.6927 28.9333 12.9428L23.276 18.5988C23.0245 18.8416 22.6877 18.976 22.3381 18.973C21.9885 18.97 21.6541 18.8297 21.4069 18.5825C21.1597 18.3353 21.0195 18.0009 21.0164 17.6513C21.0134 17.3017 21.1478 16.9649 21.3907 16.7134L26.104 12.0001L21.3907 7.28544Z" fill="currentColor"/></svg>