<svg width="24" height="14" viewBox="0 0 24 14" fill="none" xmlns="http://www.w3.org/2000/svg"><path d="M1.33333 8.33325C2.06667 8.33325 2.66667 7.73325 2.66667 6.99992C2.66667 6.26658 2.06667 5.66658 1.33333 5.66658C0.6 5.66658 0 6.26658 0 6.99992C0 7.73325 0.6 8.33325 1.33333 8.33325ZM1.33333 13.6666C2.06667 13.6666 2.66667 13.0666 2.66667 12.3333C2.66667 11.5999 2.06667 10.9999 1.33333 10.9999C0.6 10.9999 0 11.5999 0 12.3333C0 13.0666 0.6 13.6666 1.33333 13.6666ZM1.33333 2.99992C2.06667 2.99992 2.66667 2.39992 2.66667 1.66659C2.66667 0.933252 2.06667 0.333252 1.33333 0.333252C0.6 0.333252 0 0.933252 0 1.66659C0 2.39992 0.6 2.99992 1.33333 2.99992ZM6.66667 8.33325H22.6667C23.4 8.33325 24 7.73325 24 6.99992C24 6.26658 23.4 5.66658 22.6667 5.66658H6.66667C5.93333 5.66658 5.33333 6.26658 5.33333 6.99992C5.33333 7.73325 5.93333 8.33325 6.66667 8.33325ZM6.66667 13.6666H22.6667C23.4 13.6666 24 13.0666 24 12.3333C24 11.5999 23.4 10.9999 22.6667 10.9999H6.66667C5.93333 10.9999 5.33333 11.5999 5.33333 12.3333C5.33333 13.0666 5.93333 13.6666 6.66667 13.6666ZM5.33333 1.66659C5.33333 2.39992 5.93333 2.99992 6.66667 2.99992H22.6667C23.4 2.99992 24 2.39992 24 1.66659C24 0.933252 23.4 0.333252 22.6667 0.333252H6.66667C5.93333 0.333252 5.33333 0.933252 5.33333 1.66659ZM1.33333 8.33325C2.06667 8.33325 2.66667 7.73325 2.66667 6.99992C2.66667 6.26658 2.06667 5.66658 1.33333 5.66658C0.6 5.66658 0 6.26658 0 6.99992C0 7.73325 0.6 8.33325 1.33333 8.33325ZM1.33333 13.6666C2.06667 13.6666 2.66667 13.0666 2.66667 12.3333C2.66667 11.5999 2.06667 10.9999 1.33333 10.9999C0.6 10.9999 0 11.5999 0 12.3333C0 13.0666 0.6 13.6666 1.33333 13.6666ZM1.33333 2.99992C2.06667 2.99992 2.66667 2.39992 2.66667 1.66659C2.66667 0.933252 2.06667 0.333252 1.33333 0.333252C0.6 0.333252 0 0.933252 0 1.66659C0 2.39992 0.6 2.99992 1.33333 2.99992ZM6.66667 8.33325H22.6667C23.4 8.33325 24 7.73325 24 6.99992C24 6.26658 23.4 5.66658 22.6667 5.66658H6.66667C5.93333 5.66658 5.33333 6.26658 5.33333 6.99992C5.33333 7.73325 5.93333 8.33325 6.66667 8.33325ZM6.66667 13.6666H22.6667C23.4 13.6666 24 13.0666 24 12.3333C24 11.5999 23.4 10.9999 22.6667 10.9999H6.66667C5.93333 10.9999 5.33333 11.5999 5.33333 12.3333C5.33333 13.0666 5.93333 13.6666 6.66667 13.6666ZM5.33333 1.66659C5.33333 2.39992 5.93333 2.99992 6.66667 2.99992H22.6667C23.4 2.99992 24 2.39992 24 1.66659C24 0.933252 23.4 0.333252 22.6667 0.333252H6.66667C5.93333 0.333252 5.33333 0.933252 5.33333 1.66659Z" fill="currentColor"/></svg>